<svg width="34" height="34" viewBox="0 0 34 34" fill="none" xmlns="http://www.w3.org/2000/svg">
<g id="Frame" clip-path="url(#clip0_40_1079)">
<g id="Group">
<path id="Vector" d="M20.5859 12.6172C20.2194 12.6172 19.9219 12.9147 19.9219 13.2812C19.9219 13.6478 20.2194 13.9453 20.5859 13.9453C20.9525 13.9453 21.25 13.6478 21.25 13.2812C21.25 12.9147 20.9525 12.6172 20.5859 12.6172Z" fill="#333333"/>
<path id="Vector_2" d="M33.2218 29.4657L24.3579 20.6018C25.8019 18.4267 26.5625 15.9079 26.5625 13.2812C26.5625 5.95797 20.6045 0 13.2812 0C5.95797 0 0 5.95797 0 13.2812C0 20.6045 5.95797 26.5625 13.2812 26.5625C15.908 26.5625 18.4268 25.8018 20.6018 24.3579L23.0519 26.808L23.0529 26.8091L29.4656 33.2218C29.9675 33.7236 30.6345 34 31.3438 34C32.053 34 32.72 33.7236 33.2216 33.222C33.7236 32.7204 34 32.0534 34 31.3438C34 30.6341 33.7236 29.9671 33.2218 29.4657ZM20.2895 22.9584L20.2894 22.9586C18.2396 24.4474 15.8163 25.2344 13.2812 25.2344C6.6903 25.2344 1.32812 19.8722 1.32812 13.2812C1.32812 6.6903 6.6903 1.32812 13.2812 1.32812C19.8722 1.32812 25.2344 6.6903 25.2344 13.2812C25.2344 15.8163 24.4474 18.2396 22.9585 20.2894C22.2151 21.3142 21.3143 22.215 20.2895 22.9584ZM21.6827 23.5605C22.3696 22.9986 22.9986 22.3696 23.5605 21.6827L25.4445 23.5667C24.8713 24.2432 24.2432 24.8713 23.5667 25.4445L21.6827 23.5605ZM32.2827 32.2827C32.0317 32.5337 31.6982 32.6719 31.3438 32.6719C30.9893 32.6719 30.6558 32.5337 30.4048 32.2827L24.5083 26.3861C25.181 25.8088 25.8087 25.1811 26.3861 24.5084L32.2828 30.4051C32.4065 30.528 32.5047 30.6743 32.5714 30.8354C32.6382 30.9965 32.6724 31.1693 32.6719 31.3438C32.6723 31.5182 32.6382 31.691 32.5714 31.8522C32.5046 32.0134 32.4064 32.1597 32.2827 32.2827Z" fill="#333333"/>
<path id="Vector_3" d="M13.2812 2.65625C7.42256 2.65625 2.65625 7.42256 2.65625 13.2812C2.65625 19.1399 7.42256 23.9062 13.2812 23.9062C19.1399 23.9062 23.9062 19.1399 23.9062 13.2812C23.9062 7.42256 19.1399 2.65625 13.2812 2.65625ZM13.2812 22.5781C8.15495 22.5781 3.98438 18.4075 3.98438 13.2812C3.98438 8.15495 8.15495 3.98438 13.2812 3.98438C18.4075 3.98438 22.5781 8.15495 22.5781 13.2812C22.5781 18.4075 18.4075 22.5781 13.2812 22.5781Z" fill="#333333"/>
<path id="Vector_4" d="M20.7231 10.4306C20.1512 8.94233 19.1556 7.66986 17.8437 6.75086C16.5006 5.80988 14.9229 5.3125 13.2812 5.3125C12.9146 5.3125 12.6172 5.60987 12.6172 5.97656C12.6172 6.34326 12.9146 6.64063 13.2812 6.64063C16.0105 6.64063 18.5028 8.3551 19.4833 10.907C19.5315 11.0324 19.6165 11.1402 19.7272 11.2163C19.8379 11.2924 19.9691 11.3331 20.1034 11.3331C20.1847 11.333 20.2654 11.318 20.3414 11.2887C20.6837 11.1572 20.8546 10.773 20.7231 10.4306Z" fill="#333333"/>
</g>
</g>
<defs>
<clipPath id="clip0_40_1079">
<rect width="34" height="34" fill="white"/>
</clipPath>
</defs>
</svg>
